<svg width="24" height="24" viewBox="0 0 24 24" fill="none" xmlns="http://www.w3.org/2000/svg">
<g clip-path="url(#clip0_2424_9005)">
<path d="M21.5 5.13391C21.6347 5.21167 21.7494 5.31977 21.8349 5.44961C21.9205 5.57946 21.9746 5.72748 21.993 5.88191L22 5.99991V18.9999C22 19.1754 21.9538 19.3479 21.866 19.4999C21.7782 19.6519 21.652 19.7781 21.5 19.8659C21.348 19.9537 21.1755 19.9999 21 19.9999C20.8245 19.9999 20.652 19.9537 20.5 19.8659C19.3669 19.2116 18.0907 18.8453 16.7831 18.7989C15.4756 18.7525 14.1766 19.0276 13 19.5999V4.42591C14.3814 3.90992 15.8598 3.70581 17.3293 3.82821C18.7988 3.95061 20.223 4.39649 21.5 5.13391ZM11 4.42691L11.001 19.6009C9.8708 19.0507 8.62686 18.7746 7.37002 18.7949C6.11318 18.8152 4.87881 19.1315 3.767 19.7179L3.44 19.8979L3.337 19.9419L3.288 19.9579L3.178 19.9839L3.117 19.9939L3 19.9999H2.958L2.848 19.9879L2.771 19.9739L2.663 19.9419L2.537 19.8859L2.442 19.8299L2.353 19.7629L2.293 19.7069L2.22 19.6249L2.156 19.5359L2.134 19.4999L2.102 19.4399L2.058 19.3369L2.042 19.2879L2.016 19.1779L2.006 19.1169L2.002 19.0679L2 5.99991C2 5.82438 2.04621 5.65194 2.13398 5.49992C2.22175 5.34791 2.34798 5.22167 2.5 5.13391C3.77705 4.39666 5.20134 3.95095 6.67084 3.82872C8.14035 3.70649 9.6187 3.91077 11 4.42691Z" fill="black"/>
</g>
<defs>
<clipPath id="clip0_2424_9005">
<rect width="24" height="24" fill="white"/>
</clipPath>
</defs>
</svg>
