<svg width="24" height="24" viewBox="0 0 24 24" fill="none" xmlns="http://www.w3.org/2000/svg">
<g clip-path="url(#clip0_2324_8888)">
<path d="M20.901 14.995L20.857 14.989C20.8223 14.9868 20.788 14.9801 20.755 14.969L20.71 14.957L20.662 14.94L20.617 14.924L20.574 14.904L20.529 14.882L20.489 14.858L20.445 14.832L20.402 14.8L20.366 14.773C20.3406 14.7522 20.3162 14.7302 20.293 14.707L17.586 12H11C10.4696 12 9.96086 11.7893 9.58579 11.4142C9.21071 11.0391 9 10.5304 9 10V4C9 3.46957 9.21071 2.96086 9.58579 2.58579C9.96086 2.21071 10.4696 2 11 2H20C20.5304 2 21.0391 2.21071 21.4142 2.58579C21.7893 2.96086 22 3.46957 22 4V14C22.0001 14.1314 21.9743 14.2616 21.924 14.383L21.904 14.426L21.882 14.471L21.858 14.511L21.832 14.555L21.8 14.598L21.773 14.634C21.6263 14.8131 21.422 14.9357 21.195 14.981L21.143 14.989L21.099 14.995C21.0332 15.0015 20.9668 15.0015 20.901 14.995Z" fill="black"/>
<path d="M7 8.999V10C7 11.0609 7.42143 12.0783 8.17157 12.8284C8.92172 13.5786 9.93913 14 11 14H15V17C15 17.5304 14.7893 18.0391 14.4142 18.4142C14.0391 18.7893 13.5304 19 13 19H6.414L3.707 21.707C3.077 22.337 2 21.891 2 21V11C2 10.4696 2.21071 9.96086 2.58579 9.58579C2.96086 9.21071 3.46957 9 4 9L7 8.999Z" fill="black"/>
</g>
<defs>
<clipPath id="clip0_2324_8888">
<rect width="24" height="24" fill="white"/>
</clipPath>
</defs>
</svg>
