<svg width="24" height="24" viewBox="0 0 24 24" fill="none" xmlns="http://www.w3.org/2000/svg">
<g clip-path="url(#clip0_2324_8889)">
<path d="M19.0002 13.431V16C19.0002 18.398 15.7952 20 12.0002 20C8.20525 20 5.00025 18.398 5.00025 16V13.431L10.8862 15.785C11.5276 16.0418 12.2379 16.0693 12.8973 15.863L13.1143 15.785L19.0002 13.431ZM21.0002 10.476L12.3713 13.928C12.1331 14.0232 11.8674 14.0232 11.6292 13.928L1.62925 9.928C0.79025 9.593 0.79025 8.407 1.62925 8.072L11.6292 4.072C11.7079 4.04037 11.7902 4.01887 11.8742 4.008L12.0002 4L12.1263 4.008C12.2103 4.01887 12.2926 4.04037 12.3713 4.072L22.4032 8.085L22.5112 8.14L22.6103 8.208L22.6982 8.284L22.7733 8.366L22.8083 8.41L22.8813 8.525L22.9333 8.64L22.9672 8.742L22.9923 8.877L22.9982 8.935L23.0002 15C23.0002 15.2652 22.8949 15.5196 22.7074 15.7071C22.5198 15.8946 22.2655 16 22.0002 16C21.735 16 21.4807 15.8946 21.2931 15.7071C21.1056 15.5196 21.0002 15.2652 21.0002 15V10.476Z" fill="black"/>
</g>
<defs>
<clipPath id="clip0_2324_8889">
<rect width="24" height="24" fill="white"/>
</clipPath>
</defs>
</svg>
