<svg width="24" height="24" viewBox="0 0 24 24" fill="none" xmlns="http://www.w3.org/2000/svg">
<g clip-path="url(#clip0_2349_16098)">
<path d="M20.926 7.074C21.6134 7.7619 21.9997 8.69451 22 9.667V18.333C22 19.3055 21.6137 20.2383 20.926 20.926C20.2383 21.6137 19.3055 22 18.333 22H9.667C8.69445 22 7.76174 21.6137 7.07404 20.926C6.38634 20.2383 6 19.3055 6 18.333V9.667C6 9.63167 6.00167 9.59767 6.005 9.565C6.02978 8.61052 6.42658 7.70351 7.11072 7.03749C7.79487 6.37146 8.7122 5.99916 9.667 6H18.333C19.306 6 20.238 6.386 20.926 7.074Z" fill="black"/>
<path d="M17.374 3.514C17.4378 3.62878 17.4784 3.755 17.4935 3.88546C17.5085 4.01592 17.4977 4.14807 17.4617 4.27436C17.4256 4.40065 17.3651 4.5186 17.2835 4.62149C17.2019 4.72437 17.1008 4.81018 16.986 4.874C16.8712 4.93782 16.745 4.97841 16.6145 4.99345C16.4841 5.0085 16.3519 4.99769 16.2256 4.96167C16.0994 4.92564 15.9814 4.86509 15.8785 4.78347C15.7756 4.70186 15.6898 4.60078 15.626 4.486C15.405 4.088 15.284 4 15 4H5C4.452 4 4 4.452 4 5V14.998C4 15.358 4.194 15.69 4.507 15.868C4.62112 15.933 4.72132 16.0198 4.80187 16.1236C4.88243 16.2273 4.94176 16.3459 4.97649 16.4725C5.01122 16.5992 5.02066 16.7315 5.00428 16.8618C4.98789 16.9921 4.946 17.1179 4.881 17.232C4.816 17.3461 4.72915 17.4463 4.62542 17.5269C4.5217 17.6074 4.40312 17.6668 4.27646 17.7015C4.1498 17.7362 4.01754 17.7457 3.88723 17.7293C3.75692 17.7129 3.63112 17.671 3.517 17.606C3.05661 17.3442 2.67374 16.9652 2.40729 16.5074C2.14085 16.0497 2.00032 15.5296 2 15V5C2 3.348 3.348 2 5 2H15C16.094 2 16.828 2.533 17.374 3.514Z" fill="black"/>
</g>
<defs>
<clipPath id="clip0_2349_16098">
<rect width="24" height="24" fill="white"/>
</clipPath>
</defs>
</svg>
