<svg width="24" height="24" viewBox="0 0 24 24" fill="none" xmlns="http://www.w3.org/2000/svg">
<path d="M10.04 4.29285C12.235 3.65212 14.655 4.07779 16.4 5.42265C17.786 6.48702 18.588 8.0033 18.652 9.59216L18.655 9.79583L18.746 9.79871C21.046 9.9015 22.889 11.6829 22.996 13.901L23 14.1037C23 16.4159 21.115 18.3039 18.745 18.4096L18.535 18.4144H6.657L6.435 18.4067C3.495 18.3011 1.118 16.1017 1.005 13.3505L1 13.143C1 10.5041 3.08 8.32974 5.784 7.93877L5.898 7.9234L5.968 7.74951C6.631 6.1933 8.024 4.95761 9.797 4.36971L10.04 4.29285Z" fill="url(#paint0_linear_3150_36735)"/>
<path d="M6.13333 5.58699C6.29452 5.58698 6.45122 5.64836 6.5792 5.76165L6.65253 5.83541L8.63693 8.13046H13.4667C14.0278 8.13043 14.5678 8.37831 14.9761 8.82338C15.3843 9.26845 15.6301 9.87708 15.663 10.5247L15.6667 10.6739V17.4565C15.6667 18.1053 15.4523 18.7296 15.0673 19.2016C14.6824 19.6736 14.1559 19.9577 13.5957 19.9958L13.4667 20H3.2C2.63885 20 2.09889 19.7522 1.69061 19.3071C1.28233 18.862 1.03659 18.2534 1.00367 17.6057L1 17.4565L1 8.13046C0.999969 7.4817 1.21437 6.85745 1.59934 6.38542C1.98431 5.9134 2.51075 5.62929 3.07093 5.59123L3.2 5.58699H6.13333Z" fill="#A37DFF"/>
<path d="M8.63693 8.13046H13.4667C14.0278 8.13043 14.5678 8.37831 14.9761 8.82338C15.3843 9.26845 15.6301 9.87708 15.663 10.5247L15.6667 10.6739V17.4565C15.6667 18.1053 15.4523 18.7296 15.0673 19.2016C14.6824 19.6736 14.1559 19.9577 13.5957 19.9958L13.4667 20H3.2C2.63885 20 2.09889 19.7522 1.69061 19.3071C1.28233 18.862 1.03659 18.2534 1.00367 17.6057L1 17.4565V10.6749C0.999969 10.0261 1.21437 9.40292 1.59934 8.93089C1.98431 8.45887 2.51075 8.17617 3.07093 8.13811L3.2 8.13089L8.63693 8.13046Z" fill="#C2A8FF"/>
<defs>
<linearGradient id="paint0_linear_3150_36735" x1="12" y1="4" x2="12" y2="18.5455" gradientUnits="userSpaceOnUse">
<stop stop-color="#DBEAFE"/>
<stop offset="1" stop-color="#93C5FD"/>
</linearGradient>
</defs>
</svg>
