<svg width="24" height="24" viewBox="0 0 24 24" fill="none" xmlns="http://www.w3.org/2000/svg">
<path d="M8.99997 4.00012C9.21977 4.0001 9.43345 4.07676 9.60797 4.21824L9.70797 4.31036L12.414 7.17659H18.9999C19.7651 7.17654 20.5014 7.48611 21.0582 8.04195C21.6149 8.59778 21.95 9.35788 21.9949 10.1667L21.9999 10.3531V18.8236C22 19.6339 21.7076 20.4135 21.1826 21.003C20.6577 21.5925 19.9398 21.9473 19.1759 21.9948L18.9999 22.0001H4.99999C4.23478 22.0001 3.49848 21.6906 2.94174 21.1347C2.38499 20.5789 2.04989 19.8188 2.005 19.01L2 18.8236V7.17659C1.99996 6.36637 2.29232 5.58675 2.81728 4.99726C3.34224 4.40776 4.0601 4.05295 4.82399 4.00542L4.99999 4.00012H8.99997Z" fill="#A37DFF"/>
<path d="M7 2.5H17C17.8284 2.5 18.5 3.17157 18.5 4V18C18.5 18.8284 17.8284 19.5 17 19.5H7C6.17157 19.5 5.5 18.8284 5.5 18V4C5.5 3.17157 6.17157 2.5 7 2.5Z" fill="#F3EEFF" fill-opacity="0.3" stroke="#E0D4FF"/>
<rect x="2" y="7" width="19.9999" height="15" rx="3" fill="#C2A8FF"/>
</svg>
