<svg width="24" height="24" viewBox="0 0 24 24" fill="none" xmlns="http://www.w3.org/2000/svg">
<path d="M9 2C9.2198 1.99998 9.43348 2.08515 9.608 2.24235L9.708 2.34471L12.414 5.52941H19C19.7652 5.52936 20.5015 5.87332 21.0583 6.49092C21.615 7.10852 21.9501 7.95307 21.995 8.85177L22 9.05882V18.4706C22 19.3708 21.7077 20.2371 21.1827 20.8921C20.6578 21.5471 19.9399 21.9413 19.176 21.9941L19 22H5C4.23479 22 3.49849 21.6561 2.94174 21.0385C2.38499 20.4209 2.04989 19.5763 2.005 18.6776L2 18.4706V5.52941C1.99996 4.62916 2.29233 3.76292 2.81728 3.10793C3.34224 2.45293 4.06011 2.0587 4.824 2.00588L5 2H9Z" fill="#A37DFF"/>
<path d="M12.414 5.52941H19C19.7652 5.52936 20.5015 5.87332 21.0583 6.49092C21.615 7.10852 21.9501 7.95307 21.995 8.85177L22 9.05882V18.4706C22 19.3708 21.7077 20.2371 21.1827 20.8921C20.6578 21.5471 19.9399 21.9413 19.176 21.9941L19 22H5C4.23479 22 3.49849 21.6561 2.94174 21.0385C2.38499 20.4209 2.04989 19.5763 2.005 18.6776L2 18.4706L2 9.06011C1.99996 8.15987 2.29233 7.29511 2.81728 6.64011C3.34224 5.98512 4.06011 5.59284 4.824 5.54002L5 5.53L12.414 5.52941Z" fill="#C2A8FF"/>
</svg>
