<svg width="24" height="24" viewBox="0 0 24 24" fill="none" xmlns="http://www.w3.org/2000/svg">
<g clip-path="url(#clip0_2442_12441)">
<path d="M7 7.00011H6C5.46957 7.00011 4.96086 7.21082 4.58579 7.58589C4.21071 7.96097 4 8.46967 4 9.00011V18.0001C4 18.5305 4.21071 19.0392 4.58579 19.4143C4.96086 19.7894 5.46957 20.0001 6 20.0001H15C15.5304 20.0001 16.0391 19.7894 16.4142 19.4143C16.7893 19.0392 17 18.5305 17 18.0001V17.0001M10.507 10.4981L9 12.0001V15.0001H12L13.493 13.5021M15.493 11.4921L20.383 6.58511C20.7768 6.19126 20.9981 5.65709 20.9981 5.10011C20.9981 4.54312 20.7768 4.00895 20.383 3.61511C19.9892 3.22126 19.455 3 18.898 3C18.341 3 17.8068 3.22126 17.413 3.61511L12.5 8.51111M16 5.00011L19 8.00011M3 3.00011L21 21.0001" stroke="black" stroke-width="1.5" stroke-linecap="round" stroke-linejoin="round"/>
</g>
<defs>
<clipPath id="clip0_2442_12441">
<rect width="24" height="24" fill="white"/>
</clipPath>
</defs>
</svg>
