<svg width="24" height="24" viewBox="0 0 24 24" fill="none" xmlns="http://www.w3.org/2000/svg">
<g clip-path="url(#clip0_2442_12442)">
<path d="M8 6.99994C8 7.26515 7.89464 7.51951 7.70711 7.70704C7.51957 7.89458 7.26522 7.99994 7 7.99994H6C5.73478 7.99994 5.48043 8.1053 5.29289 8.29283C5.10536 8.48037 5 8.73472 5 8.99994V17.9999C5 18.2652 5.10536 18.5195 5.29289 18.707C5.48043 18.8946 5.73478 18.9999 6 18.9999H15C15.2652 18.9999 15.5196 18.8946 15.7071 18.707C15.8946 18.5195 16 18.2652 16 17.9999V16.9999C16 16.7347 16.1054 16.4804 16.2929 16.2928C16.4804 16.1053 16.7348 15.9999 17 15.9999C17.2652 15.9999 17.5196 16.1053 17.7071 16.2928C17.8946 16.4804 18 16.7347 18 16.9999V17.9999C18 18.7956 17.6839 19.5586 17.1213 20.1213C16.5587 20.6839 15.7956 20.9999 15 20.9999H6C5.20435 20.9999 4.44129 20.6839 3.87868 20.1213C3.31607 19.5586 3 18.7956 3 17.9999V8.99994C3 8.20429 3.31607 7.44123 3.87868 6.87862C4.44129 6.31601 5.20435 5.99994 6 5.99994H7C7.26522 5.99994 7.51957 6.1053 7.70711 6.29283C7.89464 6.48037 8 6.73472 8 6.99994Z" fill="black"/>
<path d="M14.596 5.01094L18.988 9.40294L12.708 15.7059C12.6151 15.7991 12.5048 15.873 12.3833 15.9235C12.2618 15.9739 12.1315 15.9999 12 15.9999H9C8.73478 15.9999 8.48043 15.8946 8.29289 15.707C8.10536 15.5195 8 15.2652 8 14.9999V11.9999C8.00003 11.8684 8.02601 11.7381 8.07646 11.6166C8.12691 11.4952 8.20083 11.3848 8.294 11.2919L14.596 5.01094ZM21.092 2.90794C21.6435 3.45909 21.9669 4.19801 21.9975 4.97713C22.0281 5.75625 21.7636 6.51824 21.257 7.11094L21.093 7.29094L20.4 7.98494L16.013 3.59794L16.708 2.90794C17.2894 2.32659 18.0778 2 18.9 2C19.7222 2 20.5106 2.32659 21.092 2.90794Z" fill="black"/>
</g>
<defs>
<clipPath id="clip0_2442_12442">
<rect width="24" height="24" fill="white"/>
</clipPath>
</defs>
</svg>
