<svg width="24" height="24" viewBox="0 0 24 24" fill="none" xmlns="http://www.w3.org/2000/svg">
<g clip-path="url(#clip0_2474_15124)">
<path d="M12 2L12.117 2.007C12.3402 2.03332 12.5481 2.13408 12.707 2.29301C12.8659 2.45194 12.9667 2.65978 12.993 2.883L13 3V7L13.005 7.15C13.0408 7.62617 13.2458 8.07383 13.5829 8.41203C13.92 8.75023 14.3669 8.95666 14.843 8.994L15 9H19L19.117 9.007C19.3402 9.03332 19.5481 9.13408 19.707 9.29301C19.8659 9.45194 19.9667 9.65978 19.993 9.883L20 10V19C20 19.7652 19.7077 20.5015 19.1827 21.0583C18.6578 21.615 17.9399 21.9501 17.176 21.995L17 22H7C6.23479 22 5.49849 21.7077 4.94174 21.1827C4.38499 20.6578 4.04989 19.9399 4.005 19.176L4 19V5C3.99996 4.23479 4.29233 3.49849 4.81728 2.94174C5.34224 2.38499 6.06011 2.04989 6.824 2.005L7 2H12ZM12 10C11.7348 10 11.4804 10.1054 11.2929 10.2929C11.1054 10.4804 11 10.7348 11 11V14.585L10.207 13.793C10.0348 13.6208 9.80571 13.5174 9.56268 13.5021C9.31965 13.4868 9.0794 13.5607 8.887 13.71L8.793 13.793C8.60553 13.9805 8.50021 14.2348 8.50021 14.5C8.50021 14.7652 8.60553 15.0195 8.793 15.207L11.293 17.707L11.337 17.749L11.405 17.804L11.515 17.875L11.629 17.929L11.734 17.964L11.884 17.994L12 18L12.117 17.993L12.234 17.973L12.342 17.94L12.423 17.906L12.521 17.854L12.613 17.79L12.707 17.707L15.207 15.207C15.3945 15.0195 15.4998 14.7652 15.4998 14.5C15.4998 14.2348 15.3945 13.9805 15.207 13.793L15.113 13.71C14.9206 13.5607 14.6803 13.4868 14.4373 13.5021C14.1943 13.5174 13.9652 13.6208 13.793 13.793L13 14.584V11C13 10.7551 12.91 10.5187 12.7473 10.3356C12.5845 10.1526 12.3603 10.0357 12.117 10.007L12 10ZM14.999 2.999L19 7H15L14.999 2.999Z" fill="black"/>
</g>
<defs>
<clipPath id="clip0_2474_15124">
<rect width="24" height="24" fill="white"/>
</clipPath>
</defs>
</svg>
