<svg width="32" height="32" viewBox="0 0 32 32" fill="none" xmlns="http://www.w3.org/2000/svg">
<g filter="url(#filter0_d_2324_8884)">
<g clip-path="url(#clip0_2324_8884)">
<path d="M13 21V15C13 14.4696 13.2107 13.9609 13.5858 13.5858C13.9609 13.2107 14.4696 13 15 13H17C17.5304 13 18.0391 13.2107 18.4142 13.5858C18.7893 13.9609 19 14.4696 19 15V21M9 12H7L16 3L25 12H23V19C23 19.5304 22.7893 20.0391 22.4142 20.4142C22.0391 20.7893 21.5304 21 21 21H11C10.4696 21 9.96086 20.7893 9.58579 20.4142C9.21071 20.0391 9 19.5304 9 19V12Z" stroke="black" stroke-width="1.5" stroke-linecap="round" stroke-linejoin="round"/>
</g>
<rect x="4.5" y="0.5" width="23" height="23" stroke="black" shape-rendering="crispEdges"/>
</g>
<defs>
<filter id="filter0_d_2324_8884" x="0" y="0" width="32" height="32" filterUnits="userSpaceOnUse" color-interpolation-filters="sRGB">
<feFlood flood-opacity="0" result="BackgroundImageFix"/>
<feColorMatrix in="SourceAlpha" type="matrix" values="0 0 0 0 0 0 0 0 0 0 0 0 0 0 0 0 0 0 127 0" result="hardAlpha"/>
<feOffset dy="4"/>
<feGaussianBlur stdDeviation="2"/>
<feComposite in2="hardAlpha" operator="out"/>
<feColorMatrix type="matrix" values="0 0 0 0 0 0 0 0 0 0 0 0 0 0 0 0 0 0 0.25 0"/>
<feBlend mode="normal" in2="BackgroundImageFix" result="effect1_dropShadow_2324_8884"/>
<feBlend mode="normal" in="SourceGraphic" in2="effect1_dropShadow_2324_8884" result="shape"/>
</filter>
<clipPath id="clip0_2324_8884">
<rect x="4" width="24" height="24" fill="white"/>
</clipPath>
</defs>
</svg>
