<svg width="24" height="24" viewBox="0 0 24 24" fill="none" xmlns="http://www.w3.org/2000/svg">
<g clip-path="url(#clip0_2324_8878)">
<path d="M5.821 4.90993C9.72 2.14493 15.289 2.37093 18.894 5.44493C22.561 8.57393 23.062 13.6829 20.046 17.3429C17.205 20.7899 12.081 21.9259 7.815 20.1479L7.582 20.0469L3.208 20.9779L3.168 20.9839L3.133 20.9909H3.115L3.093 20.9959H3.055L3.022 20.9999L3.001 20.9989L2.978 20.9999L2.945 20.9969H2.91L2.888 20.9929L2.866 20.9909L2.831 20.9839L2.797 20.9789L2.781 20.9749L2.757 20.9699L2.708 20.9539L2.684 20.9489L2.673 20.9439L2.651 20.9369L2.606 20.9169L2.576 20.9049L2.565 20.8989L2.551 20.8929L2.52 20.8749L2.475 20.8509L2.459 20.8399L2.422 20.8139L2.382 20.7869L2.38 20.7829L2.367 20.7739L2.324 20.7339L2.299 20.7139L2.293 20.7069L2.237 20.6449L2.224 20.6309L2.213 20.6169L2.174 20.5609L2.16 20.5419L2.155 20.5319L2.113 20.4589L2.106 20.4469L2.102 20.4389L2.095 20.4269L2.081 20.3889L2.061 20.3469L2.057 20.3309L2.053 20.3209L2.036 20.2599L2.029 20.2419L2.027 20.2269L2.022 20.2079L2.017 20.1749L2.009 20.1329L2.007 20.1019L2.004 20.0919V20.0759L2 20.0219L2.001 19.9859L2.002 19.9629L2.004 19.9099L2.008 19.8849V19.8659L2.016 19.8309L2.021 19.7969L2.026 19.7769L2.03 19.7569L2.048 19.6969L2.051 19.6839L3.201 16.2339L3.179 16.1969C0.969 12.4499 1.97 7.80593 5.592 5.07793L5.821 4.90993Z" fill="black"/>
</g>
<defs>
<clipPath id="clip0_2324_8878">
<rect width="24" height="24" fill="white"/>
</clipPath>
</defs>
</svg>
