<svg width="24" height="24" viewBox="0 0 24 24" fill="none" xmlns="http://www.w3.org/2000/svg">
<g clip-path="url(#clip0_2408_9162)">
<path d="M15.0007 6.99996L8.50068 13.5C8.10286 13.8978 7.87936 14.4374 7.87936 15C7.87936 15.5626 8.10286 16.1021 8.50068 16.5C8.8985 16.8978 9.43807 17.1213 10.0007 17.1213C10.5633 17.1213 11.1029 16.8978 11.5007 16.5L18.0007 9.99996C18.7963 9.20432 19.2433 8.12518 19.2433 6.99996C19.2433 5.87475 18.7963 4.79561 18.0007 3.99996C17.205 3.20432 16.1259 2.75732 15.0007 2.75732C13.8755 2.75732 12.7963 3.20432 12.0007 3.99996L5.50068 10.5C4.30721 11.6934 3.63672 13.3121 3.63672 15C3.63672 16.6878 4.30721 18.3065 5.50068 19.5C6.69415 20.6934 8.31285 21.3639 10.0007 21.3639C11.6885 21.3639 13.3072 20.6934 14.5007 19.5L21.0007 13" stroke="black" stroke-width="1.5" stroke-linecap="round" stroke-linejoin="round"/>
</g>
<defs>
<clipPath id="clip0_2408_9162">
<rect width="24" height="24" fill="white"/>
</clipPath>
</defs>
</svg>
