<svg width="24" height="24" viewBox="0 0 24 24" fill="none" xmlns="http://www.w3.org/2000/svg">
<g clip-path="url(#clip0_2442_12440)">
<path d="M12.085 6.50012L17.5 11.9151L8.707 20.7071C8.51951 20.8947 8.26519 21.0001 8 21.0001H4C3.73478 21.0001 3.48043 20.8948 3.29289 20.7072C3.10536 20.5197 3 20.2653 3 20.0001V16.0001C3.00006 15.7349 3.10545 15.4806 3.293 15.2931L12.085 6.50012ZM17.491 3.80212C18.1402 3.97598 18.7321 4.31768 19.2074 4.79288C19.6826 5.26807 20.0244 5.86 20.1983 6.50917C20.3722 7.15833 20.3722 7.84184 20.1982 8.49097C20.0241 9.14011 19.6823 9.732 19.207 10.2071L18.915 10.5001L13.5 5.08512L13.793 4.79312C14.2683 4.31803 14.8602 3.97636 15.5093 3.80241C16.1584 3.62846 16.8418 3.62836 17.491 3.80212Z" fill="black"/>
</g>
<defs>
<clipPath id="clip0_2442_12440">
<rect width="24" height="24" fill="white"/>
</clipPath>
</defs>
</svg>
