<svg width="24" height="24" viewBox="0 0 24 24" fill="none" xmlns="http://www.w3.org/2000/svg">
<g clip-path="url(#clip0_2385_9341)">
<path d="M15.1139 3.20995L15.2079 3.29295L20.7079 8.79295C20.8764 8.96242 20.9787 9.18668 20.9962 9.42507C21.0137 9.66347 20.9452 9.90025 20.8031 10.0925C20.661 10.2847 20.4548 10.4197 20.2218 10.473C19.9888 10.5263 19.7444 10.4943 19.5329 10.3829L16.3609 13.5539L14.9369 17.3509C14.8994 17.4511 14.846 17.5447 14.7789 17.6279L14.7089 17.7079L13.2089 19.2079C13.0365 19.38 12.8074 19.4832 12.5644 19.4983C12.3213 19.5134 12.0811 19.4393 11.8889 19.2899L11.7939 19.2069L9.00086 16.4149L5.20786 20.2069C5.0279 20.3863 4.78643 20.4904 4.53248 20.4982C4.27853 20.5059 4.03115 20.4167 3.84058 20.2487C3.65002 20.0807 3.53056 19.8464 3.50646 19.5935C3.48237 19.3405 3.55545 19.0879 3.71086 18.8869L3.79386 18.7929L7.58586 14.9999L4.79386 12.2069C4.62168 12.0348 4.51825 11.8057 4.50297 11.5626C4.48769 11.3196 4.56161 11.0793 4.71086 10.8869L4.79386 10.7929L6.29386 9.29295C6.36931 9.21722 6.45642 9.15409 6.55186 9.10595L6.64986 9.06395L10.4459 7.63895L13.6169 4.46895C13.5087 4.26678 13.4734 4.03359 13.5167 3.80845C13.56 3.58331 13.6793 3.37988 13.8547 3.23224C14.0301 3.08461 14.2509 3.00172 14.4802 2.99748C14.7094 2.99324 14.9331 3.0689 15.1139 3.20995Z" fill="black"/>
</g>
<defs>
<clipPath id="clip0_2385_9341">
<rect width="24" height="24" fill="white"/>
</clipPath>
</defs>
</svg>
