<svg width="24" height="24" viewBox="0 0 24 24" fill="none" xmlns="http://www.w3.org/2000/svg">
<path d="M0 12C0 5.37258 5.37258 0 12 0C18.6274 0 24 5.37258 24 12C24 18.6274 18.6274 24 12 24C5.37258 24 0 18.6274 0 12Z" fill="#D9D9D9"/>
<path d="M12 5C12.6357 5 13.2572 5.20527 13.7858 5.58986C14.3143 5.97444 14.7263 6.52107 14.9696 7.16061C15.2129 7.80015 15.2765 8.50388 15.1525 9.18282C15.0285 9.86175 14.7224 10.4854 14.2728 10.9749C13.8233 11.4644 13.2506 11.7977 12.6271 11.9327C12.0036 12.0678 11.3573 11.9985 10.7699 11.7336C10.1826 11.4687 9.68061 11.0201 9.32742 10.4445C8.97423 9.86892 8.78571 9.19223 8.78571 8.5L8.78893 8.3481C8.82488 7.44703 9.17889 6.59584 9.77714 5.97206C10.3754 5.34828 11.1717 5.00005 12 5Z" fill="black"/>
<path d="M13.2857 13.4C14.1382 13.4 14.9558 13.7687 15.5586 14.4251C16.1614 15.0815 16.5 15.9717 16.5 16.9V17.6C16.5 17.9713 16.3645 18.3274 16.1234 18.5899C15.8823 18.8525 15.5553 19 15.2143 19H8.78571C8.44472 19 8.1177 18.8525 7.87658 18.5899C7.63546 18.3274 7.5 17.9713 7.5 17.6V16.9C7.5 15.9717 7.83865 15.0815 8.44144 14.4251C9.04424 13.7687 9.8618 13.4 10.7143 13.4H13.2857Z" fill="black"/>
</svg>
