<svg width="24" height="24" viewBox="0 0 24 24" fill="none" xmlns="http://www.w3.org/2000/svg">
<g clip-path="url(#clip0_2390_9205)">
<path d="M14.0071 3.0731C14.9973 3.64469 15.8536 4.42175 16.5183 5.35199C17.183 6.28223 17.6407 7.34406 17.8607 8.46603C18.0806 9.58799 18.0577 10.7441 17.7934 11.8564C17.5292 12.9688 17.0297 14.0116 16.3286 14.9148L21.7191 20.3053C21.9014 20.494 22.0022 20.7468 22 21.0091C21.9977 21.2715 21.8924 21.5225 21.7069 21.708C21.5214 21.8935 21.2704 21.9988 21.008 22.001C20.7457 22.0033 20.4929 21.9025 20.3042 21.7202L14.9127 16.3297C13.766 17.2195 12.3989 17.7808 10.9578 17.9535C9.51664 18.1262 8.05566 17.9039 6.73116 17.3102C5.40665 16.7166 4.26846 15.774 3.43837 14.5834C2.60828 13.3927 2.11753 11.9988 2.01861 10.5507C1.9197 9.10265 2.21635 7.65493 2.87683 6.36246C3.5373 5.06999 4.53675 3.98141 5.76823 3.21319C6.99971 2.44497 8.41689 2.02603 9.86812 2.00117C11.3194 1.97632 12.75 2.3475 14.0071 3.0731Z" fill="black"/>
</g>
<defs>
<clipPath id="clip0_2390_9205">
<rect width="24" height="24" fill="white"/>
</clipPath>
</defs>
</svg>
