<svg width="24" height="24" viewBox="0 0 24 24" fill="none" xmlns="http://www.w3.org/2000/svg">
<g clip-path="url(#clip0_2408_9161)">
<path d="M21.8637 3.54901L15.4097 21.417C15.2858 21.6867 15.0871 21.9152 14.8371 22.0753C14.5872 22.2354 14.2965 22.3203 13.9997 22.32C13.7085 22.321 13.4229 22.2395 13.1762 22.0848C12.9294 21.9301 12.7316 21.7086 12.6057 21.446L9.72569 15.687L21.8637 3.54901ZM20.4497 2.13501L8.31069 14.273L2.58269 11.409C2.31312 11.2852 2.08475 11.0866 1.92469 10.8369C1.76463 10.5871 1.67959 10.2967 1.67969 10C1.67969 9.39401 2.03269 8.84301 2.66069 8.56001L20.4497 2.13501Z" fill="black"/>
</g>
<defs>
<clipPath id="clip0_2408_9161">
<rect width="24" height="24" fill="white"/>
</clipPath>
</defs>
</svg>
