<svg width="24" height="24" viewBox="0 0 24 24" fill="none" xmlns="http://www.w3.org/2000/svg">
<rect width="24" height="24" rx="12" fill="#D9D9D9"/>
<path d="M7.5 18.75V17.25C7.5 16.4544 7.81607 15.6913 8.37868 15.1287C8.94129 14.5661 9.70435 14.25 10.5 14.25H13.5C14.2956 14.25 15.0587 14.5661 15.6213 15.1287C16.1839 15.6913 16.5 16.4544 16.5 17.25V18.75M9 8.25C9 9.04565 9.31607 9.80871 9.87868 10.3713C10.4413 10.9339 11.2044 11.25 12 11.25C12.7956 11.25 13.5587 10.9339 14.1213 10.3713C14.6839 9.80871 15 9.04565 15 8.25C15 7.45435 14.6839 6.69129 14.1213 6.12868C13.5587 5.56607 12.7956 5.25 12 5.25C11.2044 5.25 10.4413 5.56607 9.87868 6.12868C9.31607 6.69129 9 7.45435 9 8.25Z" stroke="black" stroke-width="1.5" stroke-linecap="round" stroke-linejoin="round"/>
</svg>
