<svg width="24" height="24" viewBox="0 0 24 24" fill="none" xmlns="http://www.w3.org/2000/svg">
<g clip-path="url(#clip0_2385_9337)">
<path d="M20.117 7.625C19.9233 7.60263 19.7272 7.63738 19.553 7.725L15 10V14L19.553 16.275C19.7053 16.3511 19.8744 16.387 20.0445 16.3795C20.2145 16.3719 20.3799 16.321 20.5248 16.2317C20.6697 16.1424 20.7894 16.0176 20.8725 15.869C20.9557 15.7205 20.9996 15.5532 21 15.383V8.617C20.9997 8.37224 20.9097 8.13608 20.747 7.95325C20.5842 7.77043 20.3601 7.65364 20.117 7.625Z" fill="black"/>
<path d="M5 5C3.355 5 2 6.355 2 8V16C2 17.645 3.355 19 5 19H13C14.645 19 16 17.645 16 16V8C16 6.355 14.645 5 13 5H5Z" fill="black"/>
</g>
<defs>
<clipPath id="clip0_2385_9337">
<rect width="24" height="24" fill="white"/>
</clipPath>
</defs>
</svg>
