<svg width="24" height="24" viewBox="0 0 24 24" fill="none" xmlns="http://www.w3.org/2000/svg">
<g clip-path="url(#clip0_2363_9532)">
<path d="M11.9992 1.66992C12.9542 1.66992 13.8442 2.13692 14.3892 2.91692L14.4942 3.07692L22.6082 16.6249C22.8548 17.052 22.989 17.5347 22.9981 18.0277C23.0073 18.5208 22.8912 19.0081 22.6607 19.4441C22.4302 19.8801 22.0928 20.2504 21.6801 20.5204C21.2674 20.7904 20.793 20.9513 20.3012 20.9879L20.1062 20.9959H3.88121C3.38891 20.9904 2.90605 20.8602 2.47768 20.6175C2.04932 20.3749 1.68942 20.0276 1.43158 19.6082C1.17374 19.1888 1.02637 18.7109 1.00322 18.2191C0.980076 17.7273 1.08191 17.2377 1.29921 16.7959L1.39821 16.6109L9.50821 3.07292C9.76787 2.64473 10.1335 2.29069 10.5698 2.04494C11.0062 1.79919 11.4984 1.67003 11.9992 1.66992ZM12.0092 14.9999L11.8822 15.0069C11.6392 15.0358 11.4152 15.1529 11.2526 15.3359C11.0901 15.5189 11.0003 15.7552 11.0003 15.9999C11.0003 16.2447 11.0901 16.4809 11.2526 16.664C11.4152 16.847 11.6392 16.964 11.8822 16.9929L11.9992 16.9999L12.1262 16.9929C12.3693 16.964 12.5933 16.847 12.7558 16.664C12.9183 16.4809 13.0081 16.2447 13.0081 15.9999C13.0081 15.7552 12.9183 15.5189 12.7558 15.3359C12.5933 15.1529 12.3693 15.0358 12.1262 15.0069L12.0092 14.9999ZM11.9992 7.99992C11.7543 7.99995 11.5179 8.08988 11.3348 8.25264C11.1518 8.4154 11.0349 8.63967 11.0062 8.88292L10.9992 8.99992V12.9999L11.0062 13.1169C11.0351 13.36 11.1522 13.584 11.3352 13.7465C11.5182 13.909 11.7544 13.9988 11.9992 13.9988C12.244 13.9988 12.4802 13.909 12.6632 13.7465C12.8463 13.584 12.9633 13.36 12.9922 13.1169L12.9992 12.9999V8.99992L12.9922 8.88292C12.9636 8.63967 12.8466 8.4154 12.6636 8.25264C12.4805 8.08988 12.2441 7.99995 11.9992 7.99992Z" fill="black"/>
</g>
<defs>
<clipPath id="clip0_2363_9532">
<rect width="24" height="24" fill="white"/>
</clipPath>
</defs>
</svg>
